<svg width="5022" height="1948" viewBox="0 0 5022 1948" fill="none" xmlns="http://www.w3.org/2000/svg">
<path fill-rule="evenodd" clip-rule="evenodd" d="M1336.54 1152.02C1259.67 1036.99 1290.84 881.396 1406.09 804.853L1685.73 619.13C1691.59 615.237 1693.19 607.33 1689.29 601.469L1619.16 495.873C1615.27 490.012 1607.36 488.416 1601.5 492.309L1486.11 568.95C1391.9 631.514 1276.86 526.103 1330.97 426.803C1334.34 420.624 1332.06 412.887 1325.88 409.52L1214.57 348.867C1208.39 345.5 1200.65 347.779 1197.28 353.958L1111.67 511.084C1021.74 676.111 788.71 686.629 684.285 530.373L632.2 452.436C628.291 446.586 620.379 445.013 614.529 448.923L509.135 519.357C503.285 523.266 501.712 531.178 505.621 537.028L678.602 795.867C755.475 910.896 724.307 1066.49 609.058 1143.03L329.417 1328.75C323.556 1332.65 321.96 1340.55 325.853 1346.41L395.984 1452.01C399.877 1457.87 407.784 1459.47 413.645 1455.57L529.042 1378.93C623.244 1316.37 738.288 1421.78 684.179 1521.08C680.812 1527.26 683.092 1535 689.27 1538.36L800.58 1599.02C806.759 1602.38 814.497 1600.1 817.863 1593.93L903.481 1436.8C993.405 1271.77 1226.44 1261.25 1330.86 1417.51L1382.95 1495.45C1386.86 1501.3 1394.77 1502.87 1400.62 1498.96L1506.01 1428.53C1511.86 1424.62 1513.44 1416.71 1509.53 1410.86L1336.54 1152.02Z" fill="white"/>
<path d="M2510.59 905.466L2369.97 920.807C2365.99 906.602 2359.03 893.25 2349.09 880.75C2339.43 868.25 2326.36 858.165 2309.88 850.494C2293.4 842.824 2273.23 838.989 2249.37 838.989C2217.27 838.989 2190.28 845.949 2168.4 859.869C2146.81 873.79 2136.16 891.83 2136.44 913.989C2136.16 933.023 2143.12 948.506 2157.32 960.438C2171.81 972.369 2195.68 982.17 2228.91 989.841L2340.56 1013.7C2402.49 1027.06 2448.52 1048.22 2478.63 1077.2C2509.03 1106.18 2524.37 1144.1 2524.65 1190.98C2524.37 1232.17 2512.3 1268.53 2488.43 1300.07C2464.85 1331.32 2432.04 1355.75 2389.99 1373.36C2347.95 1390.98 2299.65 1399.78 2245.11 1399.78C2164.99 1399.78 2100.51 1383.02 2051.64 1349.5C2002.78 1315.69 1973.66 1268.68 1964.28 1208.45L2114.71 1193.96C2121.53 1223.51 2136.02 1245.81 2158.18 1260.86C2180.34 1275.92 2209.17 1283.45 2244.68 1283.45C2281.33 1283.45 2310.73 1275.92 2332.89 1260.86C2355.34 1245.81 2366.56 1227.2 2366.56 1205.04C2366.56 1186.29 2359.31 1170.81 2344.82 1158.59C2330.62 1146.37 2308.46 1137 2278.35 1130.47L2166.7 1107.03C2103.91 1093.96 2057.47 1071.94 2027.35 1040.98C1997.24 1009.73 1982.32 970.239 1982.61 922.511C1982.32 882.17 1993.26 847.227 2015.42 817.682C2037.86 787.852 2068.97 764.841 2108.74 748.648C2148.8 732.17 2194.97 723.932 2247.24 723.932C2323.94 723.932 2384.31 740.267 2428.35 772.938C2472.66 805.608 2500.08 849.784 2510.59 905.466ZM2792.48 1181.6L2792.05 995.381H2816.77L3052 732.455H3232.25L2942.91 1054.61H2910.95L2792.48 1181.6ZM2651.86 1387V514.273H2806.12V1387H2651.86ZM3062.65 1387L2849.58 1089.13L2953.56 980.466L3247.17 1387H3062.65ZM3593.62 1399.78C3529.7 1399.78 3474.3 1385.72 3427.42 1357.6C3380.55 1329.47 3344.18 1290.12 3318.33 1239.56C3292.76 1188.99 3279.98 1129.9 3279.98 1062.28C3279.98 994.67 3292.76 935.437 3318.33 884.585C3344.18 833.733 3380.55 794.244 3427.42 766.119C3474.3 737.994 3529.7 723.932 3593.62 723.932C3657.54 723.932 3712.93 737.994 3759.81 766.119C3806.68 794.244 3842.91 833.733 3868.47 884.585C3894.33 935.437 3907.25 994.67 3907.25 1062.28C3907.25 1129.9 3894.33 1188.99 3868.47 1239.56C3842.91 1290.12 3806.68 1329.47 3759.81 1357.6C3712.93 1385.72 3657.54 1399.78 3593.62 1399.78ZM3594.47 1276.2C3629.13 1276.2 3658.11 1266.69 3681.4 1247.65C3704.7 1228.34 3722.03 1202.48 3733.39 1170.1C3745.04 1137.71 3750.86 1101.63 3750.86 1061.86C3750.86 1021.8 3745.04 985.58 3733.39 953.193C3722.03 920.523 3704.7 894.528 3681.4 875.21C3658.11 855.892 3629.13 846.233 3594.47 846.233C3558.96 846.233 3529.41 855.892 3505.83 875.21C3482.54 894.528 3465.07 920.523 3453.42 953.193C3442.05 985.58 3436.37 1021.8 3436.37 1061.86C3436.37 1101.63 3442.05 1137.71 3453.42 1170.1C3465.07 1202.48 3482.54 1228.34 3505.83 1247.65C3529.41 1266.69 3558.96 1276.2 3594.47 1276.2ZM4192.44 514.273V1387H4038.18V514.273H4192.44ZM4351.07 1632.45V732.455H4502.78V840.693H4511.73C4519.68 824.784 4530.9 807.881 4545.39 789.983C4559.88 771.801 4579.48 756.318 4604.2 743.534C4628.91 730.466 4660.45 723.932 4698.8 723.932C4749.37 723.932 4794.97 736.858 4835.59 762.71C4876.5 788.278 4908.89 826.205 4932.75 876.489C4956.9 926.489 4968.97 987.852 4968.97 1060.58C4968.97 1132.45 4957.18 1193.53 4933.6 1243.82C4910.02 1294.1 4877.92 1332.45 4837.3 1358.88C4796.67 1385.3 4750.65 1398.51 4699.23 1398.51C4661.73 1398.51 4630.62 1392.26 4605.9 1379.76C4581.19 1367.26 4561.3 1352.2 4546.24 1334.59C4531.47 1316.69 4519.97 1299.78 4511.73 1283.88H4505.34V1632.45H4351.07ZM4502.35 1059.73C4502.35 1102.06 4508.32 1139.13 4520.25 1170.95C4532.47 1202.77 4549.94 1227.62 4572.66 1245.52C4595.68 1263.14 4623.52 1271.94 4656.19 1271.94C4690.28 1271.94 4718.83 1262.85 4741.84 1244.67C4764.85 1226.2 4782.18 1201.06 4793.83 1169.24C4805.76 1137.14 4811.73 1100.64 4811.73 1059.73C4811.73 1019.1 4805.9 983.023 4794.26 951.489C4782.61 919.955 4765.28 895.239 4742.27 877.341C4719.26 859.443 4690.56 850.494 4656.19 850.494C4623.23 850.494 4595.25 859.159 4572.24 876.489C4549.23 893.818 4531.76 918.108 4519.82 949.358C4508.18 980.608 4502.35 1017.4 4502.35 1059.73Z" fill="white"/>
</svg>
