<svg width="1369" height="1254" viewBox="0 0 1369 1254" fill="none" xmlns="http://www.w3.org/2000/svg">
<path fill-rule="evenodd" clip-rule="evenodd" d="M1013.54 805.016C936.672 689.987 967.84 534.396 1083.09 457.853L1362.73 272.13C1368.59 268.237 1370.19 260.33 1366.29 254.469L1296.16 148.873C1292.27 143.012 1284.36 141.416 1278.5 145.309L1163.11 221.95C1068.9 284.514 953.859 179.103 1007.97 79.8027C1011.34 73.6244 1009.06 65.8866 1002.88 62.52L891.567 1.86663C885.388 -1.50001 877.651 0.779404 874.284 6.95785L788.666 164.084C698.742 329.111 465.71 339.629 361.285 183.373L309.2 105.436C305.291 99.5862 297.379 98.0131 291.529 101.923L186.135 172.357C180.285 176.266 178.712 184.178 182.621 190.028L355.602 448.867C432.475 563.896 401.307 719.488 286.058 796.031L6.41725 981.754C0.556028 985.646 -1.03984 993.553 2.85288 999.415L72.9842 1105.01C76.8769 1110.87 84.7841 1112.47 90.6453 1108.57L206.042 1031.93C300.244 969.37 415.288 1074.78 361.179 1174.08C357.812 1180.26 360.092 1188 366.27 1191.36L477.58 1252.02C483.759 1255.38 491.497 1253.1 494.863 1246.93L580.481 1089.8C670.405 924.772 903.438 914.255 1007.86 1070.51L1059.95 1148.45C1063.86 1154.3 1071.77 1155.87 1077.62 1151.96L1183.01 1081.53C1188.86 1077.62 1190.44 1069.71 1186.53 1063.86L1013.54 805.016Z" fill="#212121"/>
</svg>
